<?xml version="1.0" encoding="UTF-8" standalone="no"?>
<svg
   xmlns:dc="http://purl.org/dc/elements/1.1/"
   xmlns:cc="http://creativecommons.org/ns#"
   xmlns:rdf="http://www.w3.org/1999/02/22-rdf-syntax-ns#"
   xmlns:svg="http://www.w3.org/2000/svg"
   xmlns="http://www.w3.org/2000/svg"
   xmlns:sodipodi="http://sodipodi.sourceforge.net/DTD/sodipodi-0.dtd"
   xmlns:inkscape="http://www.inkscape.org/namespaces/inkscape"
   style="enable-background:new"
   version="1.1"
   id="svg7178"
   viewBox="0 0 22 15.716614"
   height="4.4355779mm"
   width="6.208889mm"
   inkscape:version="0.91 r13725"
   sodipodi:docname="icon-download.svg">
  <sodipodi:namedview
     pagecolor="#ffffff"
     bordercolor="#666666"
     borderopacity="1"
     objecttolerance="10"
     gridtolerance="10"
     guidetolerance="10"
     inkscape:pageopacity="0"
     inkscape:pageshadow="2"
     inkscape:window-width="857"
     inkscape:window-height="480"
     id="namedview12"
     showgrid="false"
     inkscape:zoom="14.863636"
     inkscape:cx="3.969419"
     inkscape:cy="7.8583072"
     inkscape:window-x="0"
     inkscape:window-y="0"
     inkscape:window-maximized="0"
     inkscape:current-layer="svg7178" />
  <defs
     id="defs7180">
    <filter
       id="filter7214"
       style="color-interpolation-filters:sRGB">
      <feBlend
         id="feBlend7216"
         in2="BackgroundImage"
         mode="multiply" />
    </filter>
  </defs>
  <metadata
     id="metadata7183">
    <rdf:RDF>
      <cc:Work
         rdf:about="">
        <dc:format>image/svg+xml</dc:format>
        <dc:type
           rdf:resource="http://purl.org/dc/dcmitype/StillImage" />
        <dc:title />
      </cc:Work>
    </rdf:RDF>
  </metadata>
  <g
     transform="translate(-474.61028,-563.72324)"
     style="opacity:0.98000004;"
     id="layer1">
    <g
       transform="matrix(0.61425673,0,0,-0.61425673,477.99238,573.91681)"
       id="g6903"
       style="">
      <path
         id="path6905"
         style="fill:#f03d5e;fill-opacity:1;fill-rule:nonzero;stroke:none;"
         d="M 0,0 1.899,0 C 2.471,0 3.043,-0.017 3.614,0.006 4.02,0.022 4.25,-0.136 4.396,-0.516 4.773,-1.495 5.188,-2.46 5.568,-3.439 c 0.111,-0.288 0.255,-0.411 0.58,-0.41 4.161,0.011 8.322,0.011 12.484,0 0.326,-10e-4 0.47,0.123 0.581,0.408 0.385,0.99 0.801,1.969 1.187,2.96 0.136,0.348 0.357,0.489 0.727,0.485 C 22.347,-0.008 23.568,0 24.823,0 c -0.05,0.187 -0.181,0.264 -0.278,0.361 -1.398,1.403 -2.801,2.802 -4.198,4.206 -0.086,0.086 -0.262,0.161 -0.186,0.312 0.056,0.113 0.218,0.06 0.333,0.06 0.864,0.004 1.728,-0.003 2.592,0.006 0.24,0.002 0.434,-0.067 0.623,-0.213 1.883,-1.453 3.775,-2.897 5.655,-4.354 0.791,-0.614 1.033,-1.468 0.919,-2.42 -0.214,-1.779 -0.446,-3.556 -0.704,-5.329 -0.15,-1.024 -0.787,-1.556 -1.823,-1.613 -0.186,-0.01 -0.372,-0.007 -0.558,-0.007 -9.865,0 -19.729,0 -29.594,0 -0.133,0 -0.266,-0.001 -0.399,0.002 -1.177,0.026 -1.824,0.542 -1.996,1.697 -0.259,1.746 -0.485,3.498 -0.691,5.251 -0.131,1.118 0.274,1.984 1.217,2.673 1.78,1.302 3.508,2.677 5.25,4.031 0.244,0.19 0.486,0.29 0.799,0.284 C 2.595,4.931 3.406,4.945 4.217,4.938 4.365,4.936 4.579,5.025 4.647,4.852 4.703,4.711 4.506,4.617 4.407,4.518 3.026,3.136 1.642,1.756 0.254,0.381 0.154,0.283 0.013,0.226 -0.109,0.15 -0.073,0.1 -0.036,0.05 0,0" />
    </g>
    <g
       transform="matrix(0.61425673,0,0,-0.61425673,485.59147,563.7239)"
       id="g6907"
       style="">
      <path
         id="path6909"
         style="fill:#f03d5e;fill-opacity:1;fill-rule:nonzero;stroke:none;"
         d="m 0,0 c 1.05,0 2.1,0.003 3.149,-0.001 0.814,-0.003 0.736,0.08 0.737,-0.717 0.003,-2.153 0.01,-4.306 -0.007,-6.458 -0.003,-0.389 0.117,-0.494 0.497,-0.491 1.807,0.018 3.614,0.01 5.421,0.005 0.122,0 0.3,0.071 0.352,-0.083 0.041,-0.12 -0.117,-0.192 -0.202,-0.269 -3.203,-2.896 -6.41,-5.787 -9.606,-8.689 -0.242,-0.22 -0.39,-0.212 -0.626,0.002 -3.197,2.902 -6.403,5.794 -9.606,8.69 -0.084,0.077 -0.244,0.148 -0.198,0.27 0.057,0.148 0.233,0.079 0.356,0.079 1.754,0.005 3.508,0.003 5.262,0.003 0.575,0 0.576,10e-4 0.576,0.56 0,2.179 -10e-4,4.358 0,6.538 10e-4,0.559 0.003,0.56 0.546,0.561 1.117,0.001 2.233,0 3.349,0" />
    </g>
  </g>
</svg>
