<?xml version="1.0" encoding="UTF-8" standalone="no"?>
<svg
   xmlns:dc="http://purl.org/dc/elements/1.1/"
   xmlns:cc="http://creativecommons.org/ns#"
   xmlns:rdf="http://www.w3.org/1999/02/22-rdf-syntax-ns#"
   xmlns:svg="http://www.w3.org/2000/svg"
   xmlns="http://www.w3.org/2000/svg"
   xmlns:sodipodi="http://sodipodi.sourceforge.net/DTD/sodipodi-0.dtd"
   xmlns:inkscape="http://www.inkscape.org/namespaces/inkscape"
   style="enable-background:new"
   version="1.1"
   id="svg7178"
   viewBox="0 0 22 21.995285"
   height="6.2075582mm"
   width="6.208889mm"
   inkscape:version="0.91 r13725"
   sodipodi:docname="icon-potential.svg">
  <sodipodi:namedview
     pagecolor="#ffffff"
     bordercolor="#666666"
     borderopacity="1"
     objecttolerance="10"
     gridtolerance="10"
     guidetolerance="10"
     inkscape:pageopacity="0"
     inkscape:pageshadow="2"
     inkscape:window-width="857"
     inkscape:window-height="480"
     id="namedview10"
     showgrid="false"
     inkscape:zoom="10.729572"
     inkscape:cx="1.2605627"
     inkscape:cy="10.997642"
     inkscape:window-x="0"
     inkscape:window-y="0"
     inkscape:window-maximized="0"
     inkscape:current-layer="svg7178" />
  <defs
     id="defs7180">
    <filter
       id="filter7214"
       style="color-interpolation-filters:sRGB">
      <feBlend
         id="feBlend7216"
         in2="BackgroundImage"
         mode="multiply" />
    </filter>
  </defs>
  <metadata
     id="metadata7183">
    <rdf:RDF>
      <cc:Work
         rdf:about="">
        <dc:format>image/svg+xml</dc:format>
        <dc:type
           rdf:resource="http://purl.org/dc/dcmitype/StillImage" />
        <dc:title />
      </cc:Work>
    </rdf:RDF>
  </metadata>
  <g
     transform="translate(5.0292611,-1081.107)"
     style="opacity:0.98000004;"
     id="layer1">
    <g
       style="fill:#978ab8;fill-opacity:1;"
       transform="matrix(0.83546843,0,0,-0.83546843,10.550164,1084.8106)"
       id="g6947">
      <path
         id="path6949"
         style="fill:#978ab8;fill-opacity:1;fill-rule:nonzero;stroke:none;"
         d="m 0,0 -0.325,0 c -2.779,0 -5.558,0 -8.338,0 -0.373,0 -0.374,0.002 -0.375,0.38 0,1.234 0.006,2.468 -0.004,3.702 -0.003,0.252 0.056,0.351 0.331,0.351 5.358,-0.007 10.715,-0.007 16.073,0 0.257,0 0.322,-0.087 0.322,-0.332 -0.005,-5.357 -0.006,-10.715 10e-4,-16.072 0,-0.257 -0.086,-0.325 -0.331,-0.323 -1.262,0.009 -2.523,0.011 -3.785,-10e-4 -0.26,-0.003 -0.321,0.091 -0.321,0.333 0.007,2.798 0.004,5.595 0.004,8.393 l 0,0.354 C 3.087,-3.285 3.009,-3.4 2.916,-3.492 -3.123,-9.529 -9.161,-15.567 -15.198,-21.605 c -0.052,-0.052 -0.11,-0.099 -0.155,-0.156 -0.138,-0.176 -0.254,-0.176 -0.416,-0.007 -0.481,0.5 -0.979,0.986 -1.47,1.477 -0.434,0.433 -0.863,0.87 -1.302,1.297 -0.137,0.133 -0.147,0.235 0,0.357 0.063,0.052 0.117,0.115 0.175,0.173 6.032,6.032 12.063,12.063 18.096,18.092 0.102,0.102 0.235,0.173 0.353,0.259 C 0.055,-0.075 0.028,-0.038 0,0" />
    </g>
  </g>
</svg>
