<?xml version="1.0" encoding="UTF-8" standalone="no"?>
<svg
   xmlns:dc="http://purl.org/dc/elements/1.1/"
   xmlns:cc="http://creativecommons.org/ns#"
   xmlns:rdf="http://www.w3.org/1999/02/22-rdf-syntax-ns#"
   xmlns:svg="http://www.w3.org/2000/svg"
   xmlns="http://www.w3.org/2000/svg"
   version="1.1"
   id="svg9791"
   viewBox="0 0 22 22.006213"
   height="6.2106423mm"
   width="6.208889mm">
  <defs
     id="defs9793" />
  <metadata
     id="metadata9796">
    <rdf:RDF>
      <cc:Work
         rdf:about="">
        <dc:format>image/svg+xml</dc:format>
        <dc:type
           rdf:resource="http://purl.org/dc/dcmitype/StillImage" />
        <dc:title></dc:title>
      </cc:Work>
    </rdf:RDF>
  </metadata>
  <g
     transform="translate(-272.32041,-420.8949)"
     id="layer1">
    <g
       transform="matrix(0.63480894,0,0,-0.63480894,290.41303,430.12142)"
       id="g6884">
      <path
         id="path6886"
         style="fill:#231f20;fill-opacity:1;fill-rule:nonzero;stroke:none"
         d="m 0,0 c -1.504,6.099 -7.778,9.839 -13.96,8.225 -5.995,-1.566 -9.857,-7.616 -8.202,-13.948 1.606,-6.145 7.634,-9.869 13.992,-8.194 C -1.24,-12.091 1.472,-5.32 0,0 m -14.941,-19.512 c -0.111,0.872 -0.229,1.673 -0.307,2.477 -0.027,0.274 -0.132,0.425 -0.385,0.466 -0.324,0.052 -0.627,0.409 -0.984,0.023 -0.549,-0.595 -1.136,-1.155 -1.689,-1.745 -0.21,-0.223 -0.384,-0.27 -0.657,-0.099 -0.596,0.375 -1.204,0.734 -1.824,1.069 -0.302,0.163 -0.34,0.354 -0.248,0.657 0.233,0.775 0.423,1.564 0.666,2.336 0.157,0.499 -0.311,0.582 -0.499,0.851 -0.145,0.207 -0.323,0.212 -0.548,0.114 -0.728,-0.317 -1.468,-0.603 -2.192,-0.928 -0.314,-0.141 -0.518,-0.11 -0.724,0.179 -0.401,0.561 -0.82,1.109 -1.254,1.645 -0.21,0.261 -0.19,0.46 0.017,0.708 0.499,0.598 0.966,1.225 1.474,1.816 0.219,0.254 0.199,0.474 0.052,0.728 -0.155,0.271 -0.199,0.617 -0.669,0.591 -0.807,-0.044 -1.618,-0.007 -2.427,-0.025 -0.295,-0.007 -0.433,0.104 -0.501,0.385 -0.168,0.7 -0.35,1.397 -0.546,2.09 -0.078,0.276 -0.022,0.443 0.241,0.583 0.715,0.379 1.406,0.804 2.13,1.163 0.357,0.178 0.337,0.438 0.318,0.741 -0.019,0.307 -0.044,0.562 -0.416,0.695 -0.748,0.267 -1.47,0.605 -2.212,0.89 -0.301,0.116 -0.419,0.267 -0.362,0.602 0.119,0.71 0.203,1.425 0.293,2.139 0.033,0.259 0.137,0.384 0.424,0.411 0.835,0.078 1.665,0.205 2.499,0.287 0.253,0.025 0.396,0.123 0.437,0.36 0.051,0.299 0.358,0.584 0.017,0.908 -0.62,0.588 -1.214,1.203 -1.836,1.789 -0.237,0.224 -0.276,0.413 -0.099,0.696 0.367,0.585 0.713,1.182 1.047,1.785 0.157,0.282 0.329,0.371 0.653,0.267 0.785,-0.252 1.591,-0.441 2.37,-0.708 0.564,-0.194 0.669,0.324 0.964,0.54 0.245,0.178 0.145,0.417 0.046,0.65 -0.305,0.716 -0.594,1.44 -0.898,2.157 -0.12,0.284 -0.097,0.484 0.187,0.68 0.566,0.392 1.11,0.819 1.648,1.25 0.249,0.2 0.436,0.23 0.699,0.005 0.616,-0.526 1.264,-1.013 1.888,-1.529 0.206,-0.169 0.384,-0.258 0.638,-0.086 0.268,0.18 0.652,0.199 0.631,0.689 -0.035,0.808 0.01,1.619 -0.006,2.427 -0.006,0.317 0.115,0.456 0.413,0.526 0.686,0.163 1.369,0.339 2.045,0.535 0.3,0.087 0.47,0.017 0.615,-0.259 0.37,-0.703 0.789,-1.38 1.137,-2.093 0.223,-0.458 0.585,-0.292 0.923,-0.324 0.346,-0.033 0.428,0.193 0.528,0.436 0.291,0.707 0.606,1.405 0.877,2.12 0.127,0.333 0.305,0.418 0.646,0.359 0.679,-0.118 1.363,-0.208 2.048,-0.284 0.313,-0.034 0.441,-0.178 0.467,-0.482 0.061,-0.716 0.143,-1.43 0.214,-2.145 0.053,-0.539 0.512,-0.953 1.041,-0.939 0.157,0.004 0.235,0.118 0.329,0.211 0.567,0.556 1.14,1.107 1.696,1.675 0.203,0.208 0.377,0.232 0.626,0.079 0.613,-0.378 1.234,-0.742 1.863,-1.092 0.253,-0.141 0.329,-0.292 0.239,-0.578 C -1.417,10.204 -1.622,9.435 -1.851,8.674 -1.913,8.471 -1.952,8.276 -1.731,8.167 -1.436,8.022 -1.313,7.535 -0.837,7.74 -0.095,8.06 0.664,8.344 1.401,8.674 1.695,8.806 1.864,8.753 2.045,8.505 2.468,7.923 2.903,7.349 3.349,6.785 3.532,6.554 3.514,6.375 3.333,6.153 2.869,5.584 2.425,4.998 1.966,4.424 1.783,4.194 1.609,3.989 1.81,3.667 2.016,3.339 2.07,2.918 2.646,2.966 3.375,3.028 4.113,2.971 4.847,2.983 5.155,2.988 5.313,2.866 5.385,2.569 5.553,1.885 5.73,1.202 5.92,0.524 6.005,0.22 5.901,0.052 5.635,-0.09 4.986,-0.434 4.361,-0.823 3.703,-1.147 3.326,-1.332 3.307,-1.599 3.321,-1.953 3.337,-2.343 3.397,-2.629 3.833,-2.779 4.499,-3.006 5.136,-3.315 5.795,-3.565 6.08,-3.672 6.197,-3.81 6.142,-4.13 6.021,-4.839 5.926,-5.553 5.841,-6.267 5.804,-6.58 5.658,-6.691 5.35,-6.719 4.575,-6.789 3.804,-6.904 3.029,-6.982 2.489,-7.036 2.621,-7.536 2.438,-7.825 2.304,-8.037 2.386,-8.206 2.56,-8.376 c 0.537,-0.523 1.051,-1.07 1.589,-1.592 0.207,-0.201 0.242,-0.371 0.086,-0.623 -0.385,-0.625 -0.755,-1.261 -1.115,-1.901 -0.134,-0.24 -0.288,-0.299 -0.55,-0.22 -0.718,0.215 -1.445,0.401 -2.164,0.613 -0.265,0.079 -0.459,0.041 -0.615,-0.203 -0.177,-0.274 -0.508,-0.458 -0.295,-0.895 0.334,-0.686 0.599,-1.405 0.91,-2.102 0.119,-0.269 0.058,-0.441 -0.174,-0.609 -0.571,-0.413 -1.138,-0.833 -1.688,-1.273 -0.264,-0.212 -0.466,-0.18 -0.712,0.02 -0.57,0.463 -1.177,0.883 -1.726,1.369 -0.406,0.36 -0.69,0.03 -1.019,-0.084 -0.288,-0.101 -0.406,-0.295 -0.392,-0.617 0.03,-0.733 0.013,-1.469 0.035,-2.202 0.01,-0.305 -0.089,-0.463 -0.399,-0.535 -0.701,-0.163 -1.397,-0.348 -2.09,-0.544 -0.285,-0.08 -0.441,0.004 -0.578,0.258 -0.355,0.659 -0.749,1.298 -1.097,1.961 -0.165,0.316 -0.4,0.363 -0.705,0.326 -0.331,-0.039 -0.682,0.034 -0.839,-0.422 -0.243,-0.709 -0.558,-1.392 -0.824,-2.092 -0.112,-0.294 -0.261,-0.433 -0.6,-0.376 -0.71,0.12 -1.424,0.213 -2.138,0.301 -0.242,0.03 -0.401,0.11 -0.401,0.306" />
    </g>
    <g
       transform="matrix(0.63480894,0,0,-0.63480894,289.58842,430.2995)"
       id="g6888">
      <path
         id="path6890"
         style="fill:#231f20;fill-opacity:1;fill-rule:nonzero;stroke:none"
         d="m 0,0 c 0.592,-2.3 0.403,-4.537 -0.552,-6.714 -0.146,-0.333 -0.282,-0.385 -0.598,-0.198 -2.541,1.502 -5.088,2.993 -7.639,4.478 -0.263,0.153 -0.377,0.33 -0.373,0.642 0.038,2.964 0.068,5.928 0.081,8.892 0.002,0.391 0.156,0.453 0.489,0.405 C -4.754,6.944 -2.044,4.891 -0.444,1.364 -0.351,1.16 -0.264,0.951 -0.196,0.738 -0.118,0.496 -0.064,0.246 0,0" />
    </g>
    <g
       transform="matrix(0.63480894,0,0,-0.63480894,284.97297,438.14414)"
       id="g6892">
      <path
         id="path6894"
         style="fill:#231f20;fill-opacity:1;fill-rule:nonzero;stroke:none"
         d="m 0,0 c -3.97,-1.027 -8.191,0.46 -10.637,3.751 -0.338,0.454 -0.333,0.478 0.166,0.761 2.476,1.404 4.956,2.802 7.426,4.218 0.338,0.194 0.595,0.21 0.942,0.003 C 0.385,7.254 2.883,5.792 5.388,4.342 5.754,4.13 5.799,3.978 5.531,3.635 4.095,1.794 2.248,0.596 0,0" />
    </g>
    <g
       transform="matrix(0.63480894,0,0,-0.63480894,277.19212,433.60322)"
       id="g6896">
      <path
         id="path6898"
         style="fill:#231f20;fill-opacity:1;fill-rule:nonzero;stroke:none"
         d="m 0,0 c -1.448,5.538 1.764,11.013 7.19,12.43 0.494,0.129 0.989,0.242 1.499,0.291 0.288,0.028 0.447,-0.014 0.444,-0.365 C 9.104,9.374 9.089,6.392 9.074,3.411 9.073,3.174 8.984,3.028 8.775,2.91 6.179,1.441 3.587,-0.033 0.997,-1.512 0.692,-1.686 0.55,-1.593 0.431,-1.287 0.251,-0.825 0.083,-0.361 0,0" />
    </g>
  </g>
</svg>
