<?xml version="1.0" encoding="UTF-8" standalone="no"?>
<svg
   xmlns:dc="http://purl.org/dc/elements/1.1/"
   xmlns:cc="http://creativecommons.org/ns#"
   xmlns:rdf="http://www.w3.org/1999/02/22-rdf-syntax-ns#"
   xmlns:svg="http://www.w3.org/2000/svg"
   xmlns="http://www.w3.org/2000/svg"
   xmlns:sodipodi="http://sodipodi.sourceforge.net/DTD/sodipodi-0.dtd"
   xmlns:inkscape="http://www.inkscape.org/namespaces/inkscape"
   width="6.208889mm"
   height="5.327424mm"
   viewBox="0 0 22 18.876699"
   id="svg7178"
   version="1.1"
   style="enable-background:new"
   inkscape:version="0.91 r13725"
   sodipodi:docname="icon-park.svg">
  <sodipodi:namedview
     pagecolor="#ffffff"
     bordercolor="#666666"
     borderopacity="1"
     objecttolerance="10"
     gridtolerance="10"
     guidetolerance="10"
     inkscape:pageopacity="0"
     inkscape:pageshadow="2"
     inkscape:window-width="857"
     inkscape:window-height="480"
     id="namedview20"
     showgrid="false"
     inkscape:zoom="12.502186"
     inkscape:cx="2.6414617"
     inkscape:cy="9.4383497"
     inkscape:window-x="0"
     inkscape:window-y="0"
     inkscape:window-maximized="0"
     inkscape:current-layer="svg7178" />
  <defs
     id="defs7180">
    <filter
       style="color-interpolation-filters:sRGB"
       id="filter7214">
      <feBlend
         mode="multiply"
         in2="BackgroundImage"
         id="feBlend7216" />
    </filter>
  </defs>
  <metadata
     id="metadata7183">
    <rdf:RDF>
      <cc:Work
         rdf:about="">
        <dc:format>image/svg+xml</dc:format>
        <dc:type
           rdf:resource="http://purl.org/dc/dcmitype/StillImage" />
        <dc:title />
      </cc:Work>
    </rdf:RDF>
  </metadata>
  <g
     id="layer1"
     style="opacity:0.98;"
     transform="translate(-98.567489,-426.161)">
    <g
       id="g6867"
       transform="matrix(0.64154881,0,0,-0.64154881,115.52684,428.56424)"
       style="">
      <path
         d="m 0,0 c -0.008,-0.16 -0.013,-0.222 -0.013,-0.285 -0.001,-1.948 10e-4,-3.896 -0.003,-5.844 -0.001,-0.253 0.013,-0.446 0.352,-0.324 0.189,0.068 0.286,-0.038 0.319,-0.218 0.035,-0.188 0.049,-0.382 0.11,-0.561 0.117,-0.339 -0.007,-0.499 -0.341,-0.557 -0.319,-0.056 -0.448,-0.229 -0.446,-0.582 0.014,-3.196 0.012,-6.392 0.002,-9.588 -0.001,-0.303 0.098,-0.485 0.349,-0.654 1.564,-1.049 3.118,-2.115 4.676,-3.174 0.092,-0.062 0.183,-0.2 0.29,-0.147 0.131,0.065 0.065,0.229 0.065,0.348 0.003,5.844 0,11.689 0.008,17.533 0,0.287 -0.089,0.462 -0.329,0.624 C 3.56,-2.434 2.093,-1.422 0.621,-0.417 0.436,-0.29 0.248,-0.166 0,0 m -18.557,-0.066 c -0.192,-0.021 -0.283,-0.118 -0.385,-0.188 -1.535,-1.068 -3.064,-2.147 -4.609,-3.202 -0.287,-0.196 -0.39,-0.404 -0.389,-0.748 0.01,-5.803 0.007,-11.607 0.01,-17.411 0,-0.132 -0.048,-0.276 0.06,-0.416 0.091,0.053 0.18,0.098 0.261,0.154 1.557,1.082 3.109,2.171 4.674,3.241 0.285,0.195 0.386,0.41 0.385,0.753 -0.01,5.804 -0.007,11.608 -0.007,17.412 l 0,0.405 z m 8.024,-12.459 c -0.016,0.006 -0.033,0.011 -0.049,0.017 -0.046,-0.13 -0.094,-0.26 -0.136,-0.391 -0.056,-0.18 -0.159,-0.242 -0.346,-0.175 -0.422,0.15 -0.826,0.334 -1.203,0.576 -0.077,0.049 -0.162,0.111 -0.112,0.213 0.157,0.32 0.307,0.668 0.581,0.885 0.204,0.161 0.397,-0.142 0.607,-0.208 0.108,-0.033 0.21,-0.091 0.312,-0.143 0.27,-0.138 0.351,-0.047 0.35,0.243 -0.007,2.508 -0.006,5.017 0,7.525 0,0.227 -0.069,0.375 -0.263,0.504 -1.642,1.094 -3.278,2.198 -4.918,3.296 -0.089,0.06 -0.181,0.19 -0.296,0.121 -0.109,-0.065 -0.054,-0.211 -0.054,-0.32 -0.002,-2.114 0.019,-4.228 -0.016,-6.342 -0.009,-0.581 0.074,-1.015 0.669,-1.232 0.108,-0.039 0.283,-0.134 0.215,-0.27 -0.169,-0.339 -0.348,-0.715 -0.676,-0.896 -0.181,-0.1 -0.193,-0.174 -0.194,-0.319 0,-2.853 0.003,-5.705 -0.004,-8.558 -0.001,-0.247 0.087,-0.395 0.288,-0.529 1.644,-1.092 3.281,-2.194 4.922,-3.291 0.08,-0.054 0.16,-0.165 0.264,-0.114 0.11,0.053 0.057,0.183 0.057,0.278 0.003,3.044 0.002,6.087 0.002,9.13 m 7.985,3.661 c 0.023,0.118 0.036,0.154 0.036,0.191 0.002,2.789 0.003,5.579 10e-4,8.368 0,0.085 0.037,0.196 -0.052,0.247 -0.109,0.061 -0.188,-0.047 -0.267,-0.1 -1.65,-1.105 -3.298,-2.216 -4.95,-3.319 -0.175,-0.117 -0.262,-0.247 -0.261,-0.466 0.006,-2.624 0.005,-5.247 0.001,-7.871 0,-0.219 0.022,-0.378 0.31,-0.338 0.26,0.037 0.25,-0.199 0.252,-0.339 0.004,-0.301 0.251,-0.605 10e-4,-0.901 -0.026,-0.031 -0.095,-0.037 -0.144,-0.036 -0.334,0.006 -0.423,-0.164 -0.422,-0.481 0.01,-2.573 0.004,-5.145 0.008,-7.718 0,-0.106 -0.064,-0.253 0.066,-0.31 0.097,-0.043 0.182,0.069 0.264,0.124 1.629,1.091 3.255,2.188 4.888,3.273 0.228,0.152 0.314,0.322 0.313,0.595 -0.009,2.47 -0.004,4.941 -0.008,7.412 0,0.1 0.06,0.226 -0.068,0.303 -0.512,-0.441 -0.512,-0.441 -1.04,0.043 -0.056,0.052 -0.108,0.109 -0.168,0.156 -0.168,0.13 -0.168,0.264 -0.028,0.418 0.196,0.217 0.396,0.432 0.573,0.665 0.191,0.253 0.379,0.422 0.695,0.084 m -23.88,-4.776 c 0,3.515 0.008,7.03 -0.007,10.545 -0.002,0.636 0.227,1.076 0.76,1.43 2.525,1.677 5.034,3.377 7.55,5.067 0.683,0.459 0.997,0.457 1.671,0.004 2.274,-1.525 4.55,-3.046 6.816,-4.583 0.263,-0.178 0.443,-0.177 0.705,0.001 2.256,1.529 4.522,3.043 6.785,4.562 0.705,0.473 1.01,0.481 1.703,0.016 2.548,-1.711 5.092,-3.428 7.643,-5.134 0.441,-0.296 0.659,-0.687 0.659,-1.214 -0.002,-7.132 -0.001,-14.264 -0.001,-21.396 0,-0.523 -0.181,-0.956 -0.659,-1.206 -0.459,-0.239 -0.874,-0.095 -1.284,0.181 -2.268,1.533 -4.549,3.048 -6.813,4.587 -0.288,0.196 -0.477,0.207 -0.768,0.01 -2.255,-1.531 -4.522,-3.044 -6.786,-4.561 -0.686,-0.459 -0.993,-0.463 -1.672,-0.007 -2.252,1.512 -4.505,3.022 -6.748,4.546 -0.289,0.196 -0.486,0.227 -0.8,0.013 -2.219,-1.515 -4.459,-3 -6.685,-4.504 -0.454,-0.306 -0.91,-0.55 -1.447,-0.243 -0.53,0.303 -0.628,0.81 -0.627,1.379 0.01,3.502 0.005,7.005 0.005,10.507"
         style="fill:#518787;fill-opacity:1;fill-rule:nonzero;stroke:none;"
         id="path6869" />
    </g>
    <g
       id="g6871"
       transform="matrix(0.64154881,0,0,-0.64154881,112.81111,436.12194)"
       style="">
      <path
         d="m 0,0 c 0.011,-0.13 -0.052,-0.177 -0.11,-0.226 -0.341,-0.285 -0.699,-0.549 -1.097,-0.752 -0.045,-0.023 -0.104,-0.068 -0.138,-0.055 -0.384,0.148 -0.37,0.562 -0.552,0.846 -0.1,0.157 -0.062,0.279 0.104,0.378 0.229,0.136 0.478,0.258 0.663,0.442 0.283,0.278 0.465,0.195 0.666,-0.078 C -0.315,0.352 -0.141,0.168 0,0"
         style="fill:#518787;fill-opacity:1;fill-rule:nonzero;stroke:none;"
         id="path6873" />
    </g>
    <g
       id="g6875"
       transform="matrix(0.64154881,0,0,-0.64154881,107.21815,435.2486)"
       style="">
      <path
         d="m 0,0 c -0.093,-0.264 -0.286,-0.399 -0.44,-0.564 -0.408,-0.435 -0.413,-0.435 -0.803,0.003 -0.203,0.228 -0.388,0.47 -0.59,0.697 -0.134,0.151 -0.099,0.249 0.041,0.378 0.732,0.674 0.729,0.678 1.406,-0.076 C -0.252,0.289 -0.121,0.138 0,0"
         style="fill:#518787;fill-opacity:1;fill-rule:nonzero;stroke:none;"
         id="path6877" />
    </g>
    <g
       id="g6879"
       transform="matrix(0.64154881,0,0,-0.64154881,103.3874,433.73441)"
       style="">
      <path
         d="m 0,0 c 0.003,-0.281 -0.179,-0.367 -0.345,-0.392 -0.337,-0.049 -0.564,-0.546 -0.979,-0.245 -0.091,0.066 -0.16,0.162 -0.239,0.244 -0.52,0.544 -0.523,0.567 0.125,0.984 0.244,0.156 0.512,0.275 0.774,0.403 0.191,0.093 0.333,0.068 0.399,-0.172 C -0.185,0.529 -0.08,0.244 0,0"
         style="fill:#518787;fill-opacity:1;fill-rule:nonzero;stroke:none;"
         id="path6881" />
    </g>
    <g
       id="g6883"
       transform="matrix(0.64154881,0,0,-0.64154881,101.72456,435.63032)"
       style="">
      <path
         d="m 0,0 c -0.236,0.081 -0.551,0.182 -0.86,0.296 -0.122,0.046 -0.111,0.16 -0.079,0.262 0.131,0.427 0.298,0.838 0.528,1.223 0.107,0.179 0.231,0.224 0.402,0.09 C 0.001,1.863 0.012,1.856 0.023,1.85 0.776,1.395 0.776,1.395 0.458,0.596 0.402,0.454 0.354,0.309 0.296,0.167 0.258,0.073 0.215,-0.025 0,0"
         style="fill:#518787;fill-opacity:1;fill-rule:nonzero;stroke:none;"
         id="path6885" />
    </g>
    <g
       id="g6887"
       transform="matrix(0.64154881,0,0,-0.64154881,117.0105,432.19425)"
       style="">
      <path
         d="m 0,0 c 0.185,-0.074 0.318,-0.238 0.44,-0.393 0.241,-0.308 0.417,-0.291 0.685,-0.004 0.503,0.54 0.389,0.53 0.911,0.008 C 2.555,-0.908 2.565,-0.796 2.019,-1.3 1.72,-1.576 1.758,-1.731 2.031,-1.987 2.553,-2.475 2.539,-2.375 2.039,-2.874 1.502,-3.409 1.629,-3.413 1.098,-2.857 c -0.243,0.254 -0.386,0.258 -0.631,0.002 -0.54,-0.566 -0.398,-0.551 -0.969,0.006 -0.082,0.08 -0.159,0.165 -0.243,0.242 -0.131,0.121 -0.119,0.226 -0.002,0.357 0.184,0.206 0.531,0.353 0.521,0.62 -0.01,0.26 -0.354,0.404 -0.531,0.619 -0.039,0.048 -0.084,0.102 -0.094,0.16 C -0.87,-0.747 -0.127,0 0,0"
         style="fill:#518787;fill-opacity:1;fill-rule:nonzero;stroke:none;"
         id="path6889" />
    </g>
  </g>
</svg>
