<?xml version="1.0" encoding="UTF-8" standalone="no"?>
<svg
   xmlns:dc="http://purl.org/dc/elements/1.1/"
   xmlns:cc="http://creativecommons.org/ns#"
   xmlns:rdf="http://www.w3.org/1999/02/22-rdf-syntax-ns#"
   xmlns:svg="http://www.w3.org/2000/svg"
   xmlns="http://www.w3.org/2000/svg"
   version="1.1"
   id="svg9791"
   viewBox="0 0 22 15.165728"
   height="4.2801056mm"
   width="6.208889mm">
  <defs
     id="defs9793" />
  <metadata
     id="metadata9796">
    <rdf:RDF>
      <cc:Work
         rdf:about="">
        <dc:format>image/svg+xml</dc:format>
        <dc:type
           rdf:resource="http://purl.org/dc/dcmitype/StillImage" />
        <dc:title></dc:title>
      </cc:Work>
    </rdf:RDF>
  </metadata>
  <g
     transform="translate(-36.942528,-329.43544)"
     id="layer1">
    <g
       transform="matrix(0.65657922,0,0,-0.65657922,57.524973,336.08199)"
       id="g6856">
      <path
         id="path6858"
         style="fill:#7ed3cb;fill-opacity:1;fill-rule:nonzero;stroke:none"
         d="m 0,0 c -0.481,0.01 -0.956,-0.054 -1.426,-0.146 -1.511,-0.294 -3.003,-0.649 -4.32,-1.501 -0.2,-0.129 -0.394,-0.272 -0.582,-0.419 -0.106,-0.084 -0.103,-0.171 0.052,-0.192 0.448,-0.061 0.848,-0.276 1.278,-0.388 0.644,-0.167 1.274,0.043 1.909,0.09 0.494,0.037 1.001,0.258 1.477,0.02 0.38,-0.191 0.724,-0.165 1.095,-0.033 0.205,0.072 0.414,0.139 0.625,0.188 0.4,0.092 0.618,0.351 0.688,0.738 0.046,0.256 0.109,0.522 0.086,0.776 C 0.789,0.126 0.952,-0.003 0,0 m -22.747,-2.222 c -0.081,0.193 -0.227,0.255 -0.345,0.343 -1.175,0.867 -2.534,1.282 -3.934,1.6 -0.862,0.196 -1.734,0.31 -2.618,0.327 -0.169,0.003 -0.335,-0.007 -0.37,-0.228 -0.084,-0.532 -0.09,-1.061 0.062,-1.585 0.086,-0.293 0.256,-0.495 0.561,-0.579 0.325,-0.091 0.647,-0.192 0.969,-0.293 0.251,-0.078 0.488,-0.066 0.722,0.067 0.234,0.132 0.486,0.173 0.757,0.126 0.321,-0.055 0.646,-0.093 0.971,-0.125 0.497,-0.048 0.991,-0.177 1.491,-0.123 0.597,0.065 1.116,0.414 1.734,0.47 m 8.19,-5.4 0,-0.004 c 1.123,0 2.247,-0.011 3.37,0.004 1.067,0.013 2.136,0.025 3.199,0.131 0.658,0.066 1.169,0.405 1.516,0.966 0.184,0.296 0.245,0.632 0.025,0.925 -0.527,0.704 -1.086,1.366 -2.039,1.517 -1.756,0.277 -3.521,0.466 -5.296,0.528 -2.031,0.071 -4.045,-0.156 -6.061,-0.384 -1.117,-0.126 -2.062,-0.484 -2.745,-1.422 -0.302,-0.415 -0.379,-0.765 -0.126,-1.173 0.343,-0.549 0.848,-0.873 1.489,-0.957 0.888,-0.117 1.785,-0.093 2.677,-0.121 1.329,-0.041 2.661,-0.01 3.991,-0.01 M -3.241,3.241 c 0.317,-0.006 0.446,0.12 0.375,0.474 -0.28,1.398 -0.811,2.685 -1.663,3.84 -0.377,0.51 -0.826,0.856 -1.472,0.915 -0.195,0.018 -0.387,0.063 -0.581,0.093 -1.089,0.166 -2.188,0.218 -3.287,0.288 -1.643,0.105 -3.289,0.147 -4.933,0.148 -1.742,10e-4 -3.485,-0.098 -5.226,-0.185 -1.131,-0.057 -2.259,-0.17 -3.374,-0.387 -0.454,-0.089 -0.8,-0.304 -1.076,-0.673 -0.387,-0.517 -0.75,-1.048 -1.037,-1.626 -0.369,-0.746 -0.627,-1.534 -0.768,-2.354 -0.075,-0.431 0.048,-0.549 0.465,-0.53 0.272,0.013 0.543,0.05 0.814,0.057 1.537,0.041 3.073,0.1 4.609,0.108 4.024,0.023 8.047,0.07 12.071,-0.029 1.667,-0.04 3.336,-0.017 5.083,-0.139 m 5.4,0.564 0,-0.524 C 1.963,2.965 1.676,2.79 1.312,2.731 0.651,2.624 -0.007,2.44 -0.67,2.753 -0.835,2.831 -1.043,2.748 -1.138,2.608 -1.24,2.458 -1.082,2.326 -0.975,2.225 -0.857,2.114 -0.721,2.019 -0.586,1.929 0.109,1.461 0.809,1.002 1.468,0.482 1.73,0.275 1.89,0.03 1.924,-0.309 1.994,-0.989 2.08,-1.668 2.159,-2.347 l 0,-4.123 C 2.094,-7.294 2.047,-8.12 2.042,-8.947 c -0.003,-0.503 -0.055,-1 -0.243,-1.474 -0.118,-0.298 -0.332,-0.451 -0.651,-0.453 -0.24,-10e-4 -0.48,-0.002 -0.719,0.004 -2.039,0.046 -4.072,-0.136 -6.11,-0.138 -0.339,-0.001 -0.684,-0.003 -1,0.12 -0.358,0.14 -0.719,0.157 -1.091,0.146 -1.317,-0.04 -2.634,-0.09 -3.951,-0.114 -2.506,-0.047 -5.012,-0.03 -7.518,0.047 -0.403,0.013 -0.806,0.035 -1.208,0.047 -0.585,0.017 -1.187,0.122 -1.756,-0.038 -0.49,-0.138 -0.974,-0.215 -1.479,-0.208 -2.156,0.028 -4.31,0.195 -6.468,0.134 -0.593,-0.017 -0.795,0.147 -0.946,0.729 -0.111,0.424 -0.147,0.857 -0.143,1.295 0.008,0.774 -0.049,1.544 -0.107,2.315 l 0,4.188 c 0.079,0.679 0.166,1.358 0.234,2.038 0.035,0.339 0.187,0.593 0.458,0.788 0.406,0.293 0.806,0.593 1.214,0.883 0.398,0.284 0.808,0.552 1.202,0.842 0.125,0.092 0.293,0.243 0.186,0.404 -0.098,0.147 -0.317,0.23 -0.497,0.134 -0.392,-0.208 -0.805,-0.182 -1.211,-0.127 -0.583,0.079 -1.219,0.063 -1.586,0.666 l 0,0.524 c 0.135,0.296 0.24,0.619 0.593,0.738 0.614,0.208 1.249,0.302 1.892,0.324 0.3,0.01 0.486,-0.157 0.546,-0.459 0.042,-0.214 0.058,-0.43 0.077,-0.647 0.016,-0.18 -0.03,-0.418 0.255,-0.458 0.27,-0.037 0.322,0.167 0.389,0.352 0.249,0.686 0.484,1.378 0.748,2.058 0.373,0.957 0.809,1.883 1.488,2.672 0.529,0.615 1.158,1.03 1.988,1.143 2.181,0.297 4.371,0.498 6.57,0.563 3.576,0.105 7.142,-0.044 10.693,-0.513 0.804,-0.106 1.512,-0.367 2.082,-0.973 0.818,-0.869 1.309,-1.921 1.733,-3.012 0.264,-0.68 0.5,-1.371 0.745,-2.059 0.059,-0.166 0.161,-0.246 0.343,-0.233 0.192,0.014 0.219,0.152 0.243,0.295 0.042,0.246 0.021,0.498 0.082,0.745 0.101,0.409 0.237,0.54 0.653,0.528 C 0.197,4.857 0.613,4.758 1.033,4.696 1.59,4.614 1.992,4.366 2.159,3.805" />
    </g>
    <g
       transform="matrix(0.65657922,0,0,-0.65657922,37.112971,342.95447)"
       id="g6860">
      <path
         id="path6862"
         style="fill:#7ed3cb;fill-opacity:1;fill-rule:nonzero;stroke:none"
         d="M 0,0 C 0.016,-0.051 0.033,-0.102 0.049,-0.154 0.246,-0.777 0.353,-0.858 1.007,-0.839 2.095,-0.807 3.183,-0.841 4.27,-0.885 4.529,-0.896 4.628,-1 4.602,-1.244 4.579,-1.449 4.568,-1.658 4.522,-1.858 4.409,-2.349 4.202,-2.506 3.698,-2.507 2.761,-2.508 1.825,-2.509 0.889,-2.506 0.367,-2.505 0.176,-2.359 0.059,-1.863 -0.087,-1.247 -0.127,-0.625 0,0" />
    </g>
    <g
       transform="matrix(0.65657922,0,0,-0.65657922,58.817187,342.90384)"
       id="g6864">
      <path
         id="path6866"
         style="fill:#7ed3cb;fill-opacity:1;fill-rule:nonzero;stroke:none"
         d="m 0,0 c 0.05,-0.772 0.003,-1.451 -0.199,-2.113 -0.093,-0.306 -0.312,-0.467 -0.632,-0.468 -1.046,-0.003 -2.091,-0.002 -3.136,-10e-4 -0.275,0 -0.445,0.158 -0.551,0.392 -0.142,0.315 -0.167,0.649 -0.155,0.991 0.006,0.195 0.129,0.224 0.284,0.231 1.044,0.052 2.088,0.084 3.133,0.057 0.848,-0.021 0.848,-0.024 1.158,0.767 0.01,0.027 0.033,0.05 0.098,0.144" />
    </g>
  </g>
</svg>
