<?xml version="1.0" encoding="UTF-8" standalone="no"?>
<svg
   xmlns:dc="http://purl.org/dc/elements/1.1/"
   xmlns:cc="http://creativecommons.org/ns#"
   xmlns:rdf="http://www.w3.org/1999/02/22-rdf-syntax-ns#"
   xmlns:svg="http://www.w3.org/2000/svg"
   xmlns="http://www.w3.org/2000/svg"
   xmlns:sodipodi="http://sodipodi.sourceforge.net/DTD/sodipodi-0.dtd"
   xmlns:inkscape="http://www.inkscape.org/namespaces/inkscape"
   style="enable-background:new"
   version="1.1"
   id="svg7178"
   viewBox="0 0 22 27.188908"
   height="7.6733141mm"
   width="6.208889mm"
   inkscape:version="0.91 r13725"
   sodipodi:docname="icon-wrench-potential.svg">
  <sodipodi:namedview
     pagecolor="#ffffff"
     bordercolor="#666666"
     borderopacity="1"
     objecttolerance="10"
     gridtolerance="10"
     guidetolerance="10"
     inkscape:pageopacity="0"
     inkscape:pageshadow="2"
     inkscape:window-width="857"
     inkscape:window-height="480"
     id="namedview12"
     showgrid="false"
     inkscape:zoom="8.6800102"
     inkscape:cx="-1.0391562"
     inkscape:cy="13.594454"
     inkscape:window-x="0"
     inkscape:window-y="0"
     inkscape:window-maximized="0"
     inkscape:current-layer="svg7178" />
  <defs
     id="defs7180">
    <filter
       id="filter7214"
       style="color-interpolation-filters:sRGB">
      <feBlend
         id="feBlend7216"
         in2="BackgroundImage"
         mode="multiply" />
    </filter>
  </defs>
  <metadata
     id="metadata7183">
    <rdf:RDF>
      <cc:Work
         rdf:about="">
        <dc:format>image/svg+xml</dc:format>
        <dc:type
           rdf:resource="http://purl.org/dc/dcmitype/StillImage" />
        <dc:title />
      </cc:Work>
    </rdf:RDF>
  </metadata>
  <g
     transform="translate(-294.16101,-478.61601)"
     style="opacity:0.98000004;"
     id="layer1">
    <g
       transform="matrix(0.68324009,0,0,-0.68324009,310.62215,479.99572)"
       id="g6939"
       style="">
      <path
         id="path6941"
         style="fill:#d25996;fill-opacity:1;fill-rule:nonzero;stroke:none;"
         d="m 0,0 c -0.517,-0.001 -0.924,-0.394 -0.927,-0.897 -0.004,-0.51 0.425,-0.943 0.93,-0.941 0.507,0.003 0.938,0.441 0.93,0.944 C 0.925,-0.399 0.508,0.001 0,0 m -17.678,-11.459 c 0.881,-0.005 1.547,-0.122 2.177,-0.411 0.765,-0.351 1.026,-0.302 1.613,0.32 1.939,2.054 3.877,4.108 5.814,6.164 2.047,2.173 4.091,4.349 6.139,6.521 0.817,0.867 1.907,1.106 3.022,0.675 C 2.163,1.395 2.88,0.349 2.908,-0.791 2.929,-1.666 2.581,-2.341 1.946,-2.929 0.329,-4.426 -1.263,-5.951 -2.866,-7.463 c -2.609,-2.459 -5.22,-4.918 -7.83,-7.377 -0.509,-0.48 -0.602,-0.78 -0.324,-1.417 1.597,-3.668 -1.224,-8.1 -5.014,-8.684 -1.082,-0.166 -2.033,0.186 -2.872,0.875 -0.195,0.16 -0.124,0.267 0.018,0.408 0.972,0.969 1.934,1.948 2.911,2.912 0.197,0.194 0.277,0.368 0.218,0.656 -0.181,0.872 -0.329,1.751 -0.476,2.629 -0.033,0.197 -0.102,0.29 -0.311,0.326 -0.937,0.158 -1.872,0.331 -2.805,0.51 -0.193,0.036 -0.299,-0.061 -0.415,-0.177 -0.976,-0.979 -1.954,-1.956 -2.932,-2.934 -0.278,-0.277 -0.294,-0.278 -0.547,0.032 -0.825,1.011 -1.049,2.158 -0.667,3.389 0.812,2.611 2.626,4.137 5.264,4.728 0.38,0.086 0.769,0.133 0.97,0.128" />
    </g>
    <g
       transform="matrix(0.68324009,0,0,-0.68324009,312.03356,494.04635)"
       id="g6951"
       style="">
      <path
         id="path6953"
         style="fill:#8981a9;fill-opacity:1;fill-rule:nonzero;stroke:none;"
         d="m 0,0 -0.255,0 c -2.185,0 -4.37,0 -6.554,0 -0.294,0 -0.295,0.001 -0.295,0.298 0,0.971 0.005,1.941 -0.004,2.911 -0.001,0.198 0.045,0.276 0.261,0.276 C -2.636,3.479 1.575,3.479 5.786,3.484 5.989,3.484 6.04,3.416 6.04,3.224 6.036,-0.987 6.035,-5.199 6.041,-9.41 6.041,-9.611 5.973,-9.665 5.78,-9.664 4.789,-9.656 3.797,-9.655 2.805,-9.665 2.601,-9.667 2.553,-9.593 2.553,-9.402 c 0.005,2.199 0.003,4.398 0.003,6.597 l 0,0.278 C 2.427,-2.582 2.365,-2.672 2.292,-2.745 c -4.747,-4.745 -9.493,-9.491 -14.239,-14.238 -0.04,-0.04 -0.086,-0.077 -0.121,-0.122 -0.108,-0.139 -0.2,-0.139 -0.327,-0.006 -0.379,0.394 -0.77,0.775 -1.156,1.161 -0.34,0.341 -0.678,0.684 -1.023,1.02 -0.108,0.104 -0.116,0.185 0,0.28 0.05,0.041 0.092,0.091 0.138,0.137 4.741,4.741 9.481,9.482 14.224,14.221 0.08,0.08 0.184,0.136 0.277,0.203 C 0.043,-0.059 0.022,-0.03 0,0" />
    </g>
  </g>
</svg>
