<?xml version="1.0" encoding="UTF-8" standalone="no"?>
<svg
   xmlns:dc="http://purl.org/dc/elements/1.1/"
   xmlns:cc="http://creativecommons.org/ns#"
   xmlns:rdf="http://www.w3.org/1999/02/22-rdf-syntax-ns#"
   xmlns:svg="http://www.w3.org/2000/svg"
   xmlns="http://www.w3.org/2000/svg"
   version="1.1"
   id="svg9791"
   viewBox="0 0 22 22"
   height="6.208889mm"
   width="6.208889mm">
  <defs
     id="defs9793" />
  <metadata
     id="metadata9796">
    <rdf:RDF>
      <cc:Work
         rdf:about="">
        <dc:format>image/svg+xml</dc:format>
        <dc:type
           rdf:resource="http://purl.org/dc/dcmitype/StillImage" />
        <dc:title></dc:title>
      </cc:Work>
    </rdf:RDF>
  </metadata>
  <g
     transform="translate(-20.714609,-1005.607)"
     id="layer1">
    <g
       transform="matrix(0.64402808,0,0,-0.64402808,23.733813,1011.7066)"
       id="g6812">
      <path
         id="path6814"
         style="fill:#61c447;fill-opacity:1;fill-rule:nonzero;stroke:none"
         d="m 0,0 c -0.041,0.007 -0.083,0.014 -0.124,0.021 -2.303,-3.98 -2.773,-8.166 -1.276,-12.537 0.996,-2.91 4.246,-6.927 5.812,-7.263 -0.71,0.646 -0.945,1.472 -1.022,2.367 -0.012,0.138 -0.062,0.273 -0.075,0.411 -0.038,0.396 -0.089,0.793 -0.092,1.189 -0.002,0.34 0.07,0.679 0.083,1.019 0.013,0.334 -0.036,0.67 -0.008,1.001 0.036,0.429 0.125,0.853 0.184,1.28 0.012,0.084 0.025,0.208 -0.021,0.254 -0.374,0.373 -0.341,0.818 -0.236,1.264 -1.021,0.762 -1.762,1.653 -1.744,3 0.006,0.45 0.093,0.849 0.369,1.21 0.2,0.262 0.388,0.535 0.564,0.813 0.392,0.617 0.293,1.083 -0.261,1.537 -0.171,0.14 -0.308,0.361 -0.377,0.573 -0.108,0.326 -0.164,0.662 -0.487,0.868 -0.061,0.039 -0.127,0.162 -0.108,0.22 0.148,0.467 -0.171,0.595 -0.494,0.768 -0.586,0.316 -0.939,0.769 -0.738,1.493 C -0.005,-0.349 -0.015,-0.171 0,0 M 11.733,4.014 C 11.691,3.789 11.669,3.612 11.624,3.442 11.465,2.842 11.189,2.739 10.625,3.013 10.499,3.074 10.214,3.056 10.162,2.973 9.923,2.596 9.553,2.632 9.196,2.564 8.403,2.414 7.609,2.259 6.832,2.044 6.411,1.928 6.026,1.686 5.624,1.5 5.38,1.388 5.214,1.237 5.19,0.935 5.159,0.557 5.08,0.182 5.009,-0.192 4.995,-0.264 4.927,-0.372 4.875,-0.378 4.808,-0.386 4.693,-0.323 4.665,-0.261 4.568,-0.043 4.523,0.2 4.413,0.41 4.307,0.612 4.184,0.856 4.001,0.957 3.157,1.422 1.609,0.741 1.356,-0.186 1.104,-1.106 1.443,-1.493 2.23,-1.253 2.307,-1.23 2.466,-1.301 2.504,-1.372 2.554,-1.466 2.56,-1.62 2.515,-1.717 2.467,-1.823 2.341,-1.894 2.248,-1.979 2.045,-2.164 1.88,-2.344 2.175,-2.597 2.235,-2.648 2.245,-2.776 2.248,-2.87 2.255,-3.086 2.235,-3.302 2.24,-3.518 c 0.009,-0.481 0.292,-0.809 0.845,-0.995 0.424,-0.142 0.708,0.043 0.929,0.388 0.147,0.23 0.349,0.278 0.592,0.158 0.486,-0.239 0.976,-0.47 1.455,-0.722 0.2,-0.105 0.375,-0.256 0.562,-0.385 C 6.807,-5.201 6.979,-5.355 7.179,-5.447 7.817,-5.74 8.363,-6.136 8.723,-6.751 8.99,-7.207 9.23,-7.68 9.514,-8.125 9.611,-8.277 9.789,-8.398 9.956,-8.48 c 0.43,-0.211 0.899,-0.35 1.307,-0.594 0.546,-0.326 0.648,-0.711 0.404,-1.3 -0.09,-0.217 -0.26,-0.4 -0.392,-0.599 -0.165,-0.245 -0.345,-0.481 -0.487,-0.738 -0.104,-0.187 -0.137,-0.411 -0.236,-0.601 -0.362,-0.693 -0.747,-1.376 -1.612,-1.532 -0.316,-0.057 -0.518,-0.228 -0.69,-0.478 -0.61,-0.884 -1.214,-1.737 -2.17,-2.342 -0.864,-0.546 -1.243,-1.437 -0.917,-2.511 0.095,-0.314 0.155,-0.643 0.191,-0.97 0.025,-0.237 0.141,-0.344 0.34,-0.446 3.063,-1.567 6.286,-1.995 9.651,-1.339 1.927,0.376 3.701,1.138 5.243,2.199 0.058,0.309 0.067,0.55 0.152,0.761 0.2,0.493 0.462,0.961 0.646,1.46 0.091,0.245 0.144,0.555 0.078,0.799 -0.231,0.845 -0.047,1.568 0.562,2.165 0.589,0.578 0.751,1.205 0.4,1.964 -0.203,0.438 -0.176,0.886 0.013,1.33 0.084,0.198 0.164,0.402 0.209,0.611 0.072,0.334 0.103,0.673 -0.106,0.946 -0.204,-0.026 -0.446,-0.13 -0.528,-0.057 -0.464,0.418 -1.005,0.313 -1.523,0.255 -0.66,-0.074 -1.235,0.096 -1.754,0.477 -0.316,0.233 -0.589,0.526 -0.914,0.744 -0.709,0.475 -0.755,1.141 -0.607,1.881 0.003,0.012 0.007,0.024 0.009,0.037 0.097,0.784 0.536,1.519 0.333,2.349 -0.017,0.071 0.049,0.167 0.088,0.246 0.2,0.406 0.515,0.679 0.94,0.842 0.146,0.056 0.325,0.135 0.398,0.258 0.408,0.681 1.09,0.866 1.783,0.92 0.53,0.041 1.074,-0.159 1.609,-0.144 0.726,0.021 1.337,-0.191 1.812,-0.712 0.554,-0.607 1.269,-0.392 1.938,-0.521 -0.068,0.628 -0.167,0.708 -0.704,0.784 -0.231,0.032 -0.485,0.113 -0.665,0.254 -0.387,0.303 -0.73,0.661 -1.097,0.991 -0.385,0.346 -0.765,0.7 -1.171,1.021 -0.245,0.194 -0.581,0.185 -0.757,-0.051 -0.144,-0.192 -0.128,-0.502 -0.186,-0.759 -0.024,-0.107 -0.022,-0.248 -0.089,-0.312 -0.304,-0.287 -1.16,-0.278 -1.444,0.055 -0.306,0.359 -0.542,0.777 -0.858,1.243 0.399,0.139 0.701,0.322 1.011,0.336 0.58,0.027 0.928,0.343 1.224,0.774 0.047,0.068 0.094,0.162 0.084,0.237 C 21.432,1.782 21.37,2.107 21.309,2.47 20.982,2.503 20.596,2.532 20.439,2.975 20.42,3.028 20.288,3.066 20.208,3.067 19.806,3.073 19.641,3.329 19.595,3.669 19.55,3.992 19.557,4.322 19.54,4.654 19.784,4.701 19.983,4.738 20.236,4.786 19.026,5.558 17.781,6.08 16.479,6.488 16.071,6.616 15.827,6.567 15.633,6.163 15.539,5.967 15.345,5.723 15.16,5.687 14.805,5.619 14.557,5.463 14.346,5.192 14.136,4.921 13.908,4.664 13.691,4.399 13.401,4.047 13.277,4.028 13.005,4.401 12.539,5.041 12.354,5.723 12.732,6.498 12.977,7.002 12.914,7.06 12.363,7.042 12.318,7.04 12.274,7.021 12.206,7.005 12.302,6.779 12.389,6.574 12.473,6.375 12.151,6.102 11.852,5.849 11.523,5.57 11.194,6.073 10.744,6.115 10.226,5.92 10.12,5.88 9.928,5.875 9.868,5.939 9.616,6.206 9.442,6.017 9.25,5.877 9.096,5.765 8.955,5.625 8.785,5.548 8.388,5.369 8.321,5.048 8.351,4.669 8.378,4.328 8.559,4.189 8.855,4.351 9.186,4.533 9.479,4.785 9.706,4.948 10,5.036 10.259,5.05 10.432,5.179 10.903,5.53 10.894,5.549 11.329,5.133 11.375,5.09 11.423,5.047 11.476,5.013 11.694,4.875 11.702,4.699 11.585,4.49 11.503,4.343 11.433,4.189 11.331,3.984 c 0.168,0.012 0.26,0.019 0.402,0.03 m 0.661,-28.703 C 2.966,-24.69 -4.69,-17.032 -4.688,-7.602 -4.687,1.824 2.974,9.474 12.408,9.471 21.83,9.468 29.475,1.804 29.472,-7.636 29.469,-17.034 21.804,-24.689 12.394,-24.689" />
    </g>
    <g
       transform="matrix(0.64402808,0,0,-0.64402808,36.057284,1010.2079)"
       id="g6816">
      <path
         id="path6818"
         style="fill:#61c447;fill-opacity:1;fill-rule:nonzero;stroke:none"
         d="m 0,0 c -0.131,-0.042 -0.226,-0.102 -0.315,-0.094 -0.096,0.008 -0.226,0.056 -0.269,0.129 -0.037,0.062 -0.003,0.227 0.056,0.272 0.176,0.134 0.31,0.253 0.204,0.502 -0.008,0.018 0.255,0.195 0.277,0.175 C 0.37,0.594 0.936,0.341 1.113,-0.276 1.201,-0.584 1.101,-0.751 0.702,-0.887 0.421,-0.982 0.222,-0.89 0.13,-0.616 0.067,-0.429 0.046,-0.228 0,0" />
    </g>
    <g
       transform="matrix(0.64402808,0,0,-0.64402808,33.66807,1009.0083)"
       id="g6820">
      <path
         id="path6822"
         style="fill:#61c447;fill-opacity:1;fill-rule:nonzero;stroke:none"
         d="m 0,0 c -0.314,0.125 -0.56,0.189 -0.769,0.315 -0.199,0.119 -0.197,0.287 0.045,0.384 0.221,0.089 0.442,0.194 0.673,0.237 C 0.068,0.959 0.244,0.895 0.33,0.807 0.383,0.753 0.339,0.568 0.291,0.462 0.221,0.306 0.109,0.169 0,0" />
    </g>
    <g
       transform="matrix(0.64402808,0,0,-0.64402808,27.412439,1012.7532)"
       id="g6824">
      <path
         id="path6826"
         style="fill:#61c447;fill-opacity:1;fill-rule:nonzero;stroke:none"
         d="m 0,0 c -0.681,-0.116 -1.336,0.07 -2.01,0.206 0.17,0.383 0.387,0.486 0.688,0.381 0.374,-0.13 0.754,-0.244 1.13,-0.37 C -0.117,0.191 -0.049,0.141 0.022,0.102 0.014,0.068 0.007,0.034 0,0" />
    </g>
    <g
       transform="matrix(0.64402808,0,0,-0.64402808,27.104977,1013.2975)"
       id="g6828">
      <path
         id="path6830"
         style="fill:#61c447;fill-opacity:1;fill-rule:nonzero;stroke:none"
         d="M 0,0 C 0.536,0.418 0.793,0.469 1.149,0.201 1.235,0.136 1.257,-0.013 1.321,-0.152 0.831,-0.096 0.433,-0.05 0,0" />
    </g>
  </g>
</svg>
