<?xml version="1.0" encoding="UTF-8" standalone="no"?>
<svg
   xmlns:dc="http://purl.org/dc/elements/1.1/"
   xmlns:cc="http://creativecommons.org/ns#"
   xmlns:rdf="http://www.w3.org/1999/02/22-rdf-syntax-ns#"
   xmlns:svg="http://www.w3.org/2000/svg"
   xmlns="http://www.w3.org/2000/svg"
   xmlns:sodipodi="http://sodipodi.sourceforge.net/DTD/sodipodi-0.dtd"
   xmlns:inkscape="http://www.inkscape.org/namespaces/inkscape"
   style="enable-background:new"
   version="1.1"
   id="svg7178"
   viewBox="0 0 22 25.561878"
   height="7.2141299mm"
   width="6.208889mm"
   inkscape:version="0.91 r13725"
   sodipodi:docname="icon-wrench-download.svg">
  <sodipodi:namedview
     pagecolor="#ffffff"
     bordercolor="#666666"
     borderopacity="1"
     objecttolerance="10"
     gridtolerance="10"
     guidetolerance="10"
     inkscape:pageopacity="0"
     inkscape:pageshadow="2"
     inkscape:window-width="857"
     inkscape:window-height="480"
     id="namedview14"
     showgrid="false"
     inkscape:zoom="9.2324986"
     inkscape:cx="-0.31871258"
     inkscape:cy="12.780939"
     inkscape:window-x="0"
     inkscape:window-y="0"
     inkscape:window-maximized="0"
     inkscape:current-layer="svg7178" />
  <defs
     id="defs7180">
    <filter
       id="filter7214"
       style="color-interpolation-filters:sRGB">
      <feBlend
         id="feBlend7216"
         in2="BackgroundImage"
         mode="multiply" />
    </filter>
  </defs>
  <metadata
     id="metadata7183">
    <rdf:RDF>
      <cc:Work
         rdf:about="">
        <dc:format>image/svg+xml</dc:format>
        <dc:type
           rdf:resource="http://purl.org/dc/dcmitype/StillImage" />
        <dc:title />
      </cc:Work>
    </rdf:RDF>
  </metadata>
  <g
     transform="translate(-211.90094,-412.80926)"
     style="opacity:0.98000004;"
     id="layer1">
    <g
       transform="matrix(0.61425673,0,0,-0.61425673,215.28304,432.84813)"
       id="g6911"
       style="">
      <path
         id="path6913"
         style="fill:#f03d5e;fill-opacity:1;fill-rule:nonzero;stroke:none;"
         d="M 0,0 C 0.633,0 1.266,0 1.899,0 2.471,0 3.043,-0.017 3.614,0.006 4.02,0.022 4.25,-0.136 4.396,-0.516 4.773,-1.495 5.188,-2.46 5.568,-3.439 c 0.111,-0.288 0.255,-0.411 0.58,-0.41 4.161,0.011 8.322,0.011 12.484,0 0.326,-10e-4 0.47,0.123 0.581,0.408 0.386,0.99 0.801,1.969 1.187,2.96 0.136,0.348 0.357,0.489 0.727,0.485 C 22.347,-0.008 23.568,0 24.823,0 c -0.05,0.187 -0.181,0.264 -0.278,0.361 -1.398,1.403 -2.801,2.802 -4.198,4.206 -0.086,0.086 -0.262,0.161 -0.186,0.312 0.056,0.113 0.218,0.06 0.333,0.06 0.864,0.004 1.728,-0.003 2.592,0.006 0.24,0.002 0.435,-0.067 0.623,-0.213 1.883,-1.453 3.775,-2.897 5.655,-4.354 0.791,-0.614 1.033,-1.468 0.919,-2.42 -0.214,-1.779 -0.446,-3.556 -0.704,-5.329 -0.15,-1.023 -0.787,-1.556 -1.823,-1.612 -0.186,-0.011 -0.372,-0.008 -0.558,-0.008 -9.865,0 -19.729,0 -29.594,0 -0.133,0 -0.266,-0.001 -0.399,0.002 -1.177,0.026 -1.824,0.542 -1.996,1.697 -0.259,1.746 -0.485,3.498 -0.691,5.251 -0.131,1.118 0.274,1.984 1.217,2.673 1.78,1.302 3.508,2.677 5.25,4.031 0.244,0.19 0.486,0.29 0.799,0.284 C 2.595,4.931 3.406,4.946 4.217,4.938 4.365,4.936 4.579,5.025 4.647,4.852 4.703,4.711 4.506,4.617 4.407,4.518 3.026,3.136 1.642,1.756 0.254,0.381 0.154,0.283 0.013,0.226 -0.109,0.15 -0.073,0.1 -0.036,0.05 0,0" />
    </g>
    <g
       transform="matrix(0.61425673,0,0,-0.61425673,222.88218,422.65522)"
       id="g6915"
       style="">
      <path
         id="path6917"
         style="fill:#f03d5e;fill-opacity:1;fill-rule:nonzero;stroke:none;"
         d="m 0,0 c 1.05,0 2.1,0.003 3.15,-0.001 0.813,-0.003 0.735,0.08 0.736,-0.717 0.003,-2.153 0.01,-4.306 -0.007,-6.458 -0.003,-0.389 0.117,-0.494 0.497,-0.491 1.807,0.018 3.614,0.01 5.421,0.005 0.122,0 0.3,0.072 0.352,-0.083 0.041,-0.12 -0.117,-0.192 -0.202,-0.269 -3.203,-2.896 -6.41,-5.787 -9.606,-8.689 -0.242,-0.22 -0.39,-0.212 -0.626,0.002 -3.197,2.902 -6.403,5.794 -9.606,8.69 -0.084,0.077 -0.244,0.148 -0.198,0.27 0.057,0.148 0.233,0.079 0.356,0.08 1.754,0.004 3.508,0.002 5.262,0.002 0.575,0 0.576,10e-4 0.576,0.56 0,2.179 -10e-4,4.358 0,6.538 10e-4,0.559 0.003,0.56 0.546,0.561 1.117,0.001 2.233,0 3.349,0" />
    </g>
    <g
       transform="matrix(0.61425673,0,0,-0.61425673,214.2706,417.39282)"
       id="g6943"
       style="">
      <path
         id="path6945"
         style="fill:#d25996;fill-opacity:1;fill-rule:nonzero;stroke:none;"
         d="M 0,0 C 0.366,-0.365 0.932,-0.374 1.29,-0.021 1.653,0.337 1.656,0.946 1.297,1.302 0.937,1.658 0.323,1.653 -0.027,1.292 -0.372,0.936 -0.36,0.359 0,0 m 20.603,-4.398 c -0.62,0.627 -1.007,1.181 -1.248,1.83 -0.293,0.79 -0.513,0.939 -1.367,0.915 C 15.164,-1.734 12.341,-1.817 9.517,-1.901 6.534,-1.99 3.55,-2.083 0.566,-2.171 c -1.191,-0.035 -2.131,0.567 -2.614,1.66 -0.467,1.054 -0.235,2.3 0.551,3.126 0.604,0.634 1.327,0.866 2.192,0.833 C 2.897,3.363 5.101,3.315 7.303,3.25 10.888,3.145 14.472,3.037 18.057,2.93 c 0.699,-0.021 0.977,0.126 1.231,0.773 1.464,3.723 6.593,4.862 9.686,2.595 C 29.856,5.651 30.28,4.729 30.386,3.649 30.41,3.398 30.285,3.372 30.085,3.373 28.712,3.375 27.339,3.364 25.967,3.373 25.691,3.374 25.511,3.308 25.349,3.062 24.86,2.318 24.344,1.592 23.827,0.867 23.711,0.704 23.693,0.59 23.816,0.417 c 0.551,-0.775 1.089,-1.558 1.623,-2.344 0.11,-0.162 0.254,-0.169 0.418,-0.169 1.383,0.002 2.766,0.002 4.149,10e-4 0.392,0 0.404,-0.011 0.364,-0.409 -0.132,-1.298 -0.784,-2.268 -1.925,-2.868 -2.42,-1.271 -4.782,-1.069 -7.065,0.379 -0.33,0.209 -0.638,0.45 -0.777,0.595" />
    </g>
  </g>
</svg>
